<?xml version="1.0" encoding="utf-8"?>
<!-- Created by sK1 2.0rc5 (https://sk1project.net/) -->
<svg xmlns="http://www.w3.org/2000/svg" height="841.88976378pt" viewBox="0 0 595.275590551 841.88976378" width="595.275590551pt" version="1.1" xmlns:xlink="http://www.w3.org/1999/xlink" id="aaeb5c40-1a5f-11ed-8826-00e04c781339">

<g>
	<path style="fill-rule:evenodd;fill:#808080;" d="M 278.3828,726.3379 C 289.4577,694.5537 311.5417,685.1803 331.72,673.8786 379.7247,653.8761 404.1324,625.2663 371.6681,581.0323 287.4482,633.5965 262.3745,614.9164 250.2874,580.5933 267.2696,562.9414 295.0837,552.5109 318.7698,539.3283 393.9835,499.7787 389.7402,457.242 355.3878,413.5733 260.6563,482.2899 167.8483,386.2608 239.7517,332.1252 279.2937,303.8723 329.8889,282.5276 375.3242,257.958 434.4131,224.8002 527.4291,146.957 423.2494,19.5645 414.8798,41.8734 396.8453,56.5481 363.5468,75.7552 295.3361,114.5632 237.905,134.031 177.4151,172.3329 58.3787,243.439 62.5355,425.6256 243.4831,481.3816 161.7715,528.4076 177.6459,623.0038 267.1885,647.9782 247.9572,679.9842 253.3194,701.265 278.3828,726.3379 Z" />
</g>
</svg>