<?xml version="1.0" encoding="UTF-8" standalone="no"?>
<!-- Created with Inkscape (http://www.inkscape.org/) -->

<svg
   width="22.310669mm"
   height="24.347626mm"
   viewBox="0 0 22.310669 24.347626"
   version="1.1"
   id="svg5"
   xml:space="preserve"
   inkscape:version="1.2.1 (9c6d41e4, 2022-07-14)"
   sodipodi:docname="drawing-4.svg"
   xmlns:inkscape="http://www.inkscape.org/namespaces/inkscape"
   xmlns:sodipodi="http://sodipodi.sourceforge.net/DTD/sodipodi-0.dtd"
   xmlns="http://www.w3.org/2000/svg"
   xmlns:svg="http://www.w3.org/2000/svg"><sodipodi:namedview
     id="namedview7"
     pagecolor="#ffffff"
     bordercolor="#000000"
     borderopacity="0.25"
     inkscape:showpageshadow="2"
     inkscape:pageopacity="0.0"
     inkscape:pagecheckerboard="0"
     inkscape:deskcolor="#d1d1d1"
     inkscape:document-units="mm"
     showgrid="false"
     inkscape:zoom="0.72604517"
     inkscape:cx="596.38163"
     inkscape:cy="620.48481"
     inkscape:window-width="1627"
     inkscape:window-height="971"
     inkscape:window-x="679"
     inkscape:window-y="23"
     inkscape:window-maximized="0"
     inkscape:current-layer="layer1" /><defs
     id="defs2" /><g
     inkscape:label="Layer 1"
     inkscape:groupmode="layer"
     id="layer1"
     transform="translate(-137.70362,-146.81457)"><g
       id="g8064"
       inkscape:label="setting list"
       style="display:inline"><g
         id="g7991"
         inkscape:label="setting"><path
           style="fill:#3d5059;fill-opacity:1;stroke:#000000;stroke-width:0;paint-order:markers fill stroke"
           d="m 147.34981,149.49076 1.41211,-2.67619 2.20928,0.36442 0.22776,3.16587 c 0,0 -1.56016,-1.0477 -3.84915,-0.8541 z"
           id="path7581" /><path
           style="fill:#3d5059;fill-opacity:1;stroke:#000000;stroke-width:0;paint-order:markers fill stroke"
           d="m 152.75074,151.47585 2.89272,-0.88782 1.30072,1.8226 -2.08256,2.39533 c 0,0 -0.35851,-1.84479 -2.11088,-3.33011 z"
           id="path7581-0" /><path
           style="fill:#3d5059;fill-opacity:1;stroke:#000000;stroke-width:0;paint-order:markers fill stroke"
           d="m 155.18932,156.47044 2.66249,1.43779 -0.38567,2.20568 -3.16791,0.1973 c 0,0 1.06267,-1.55002 0.89109,-3.84077 z"
           id="path7581-0-2" /><path
           style="fill:#3d5059;fill-opacity:1;stroke:#000000;stroke-width:0;paint-order:markers fill stroke"
           d="m 148.11497,164.27162 -1.40865,2.67802 -2.20975,-0.36157 -0.23188,-3.16557 c 0,0 1.56154,1.04569 3.85028,0.84912 z"
           id="path7581-0-2-5" /><path
           style="fill:#3d5059;fill-opacity:1;stroke:#000000;stroke-width:0;paint-order:markers fill stroke"
           d="m 142.93297,162.39504 -2.86014,0.98774 -1.36323,-1.77632 1.99808,-2.46623 c 0,0 0.42239,1.83125 2.22529,3.25481 z"
           id="path7581-0-2-5-2" /><path
           style="fill:#3d5059;fill-opacity:1;stroke:#000000;stroke-width:0;paint-order:markers fill stroke"
           d="m 140.39828,157.37791 -2.69466,-1.37653 0.33511,-2.21392 3.16258,-0.26972 c 0,0 -1.02695,1.57394 -0.80303,3.86017 z"
           id="path7581-0-2-5-2-7" /><path
           style="fill:#3d5059;fill-opacity:1;stroke:#000000;stroke-width:0;paint-order:markers fill stroke"
           d="m 142.247,151.99293 -0.91229,-2.8851 1.81151,-1.31611 2.41292,2.06216 c 0,0 -1.84173,0.37414 -3.31214,2.13905 z"
           id="path7581-0-2-5-2-7-2" /><circle
           style="display:inline;fill:#6d8591;fill-opacity:1;stroke:#000000;stroke-width:0;paint-order:markers fill stroke"
           id="path6605-2"
           cx="147.78055"
           cy="-156.89606"
           r="7.4405632"
           transform="scale(1,-1)" /><circle
           style="fill:#ffffff;fill-opacity:1;stroke:#000000;stroke-width:0;paint-order:markers fill stroke"
           id="path6605"
           cx="147.81274"
           cy="-156.83162"
           r="3.9296482"
           transform="scale(1,-1)" /></g><g
         id="g6492"
         inkscape:label="check list"><rect
           style="fill:#3748a8;fill-opacity:1;stroke:#000000;stroke-width:0;paint-order:markers fill stroke"
           id="rect6393"
           width="11.936255"
           height="2.4947164"
           x="179.49681"
           y="121.01356"
           ry="0.26688737"
           transform="matrix(0.97563111,0.21941725,-0.22097473,0.97527953,0,0)"
           rx="0.014995265" /><path
           style="fill:#b3d9f8;fill-opacity:1;stroke:#000000;stroke-width:0;paint-order:markers fill stroke"
           d="m 148.0163,158.97964 -2.26439,9.68109 11.76741,2.50146 2.12387,-9.4179 z"
           id="path6449"
           sodipodi:nodetypes="ccccc" /><path
           style="fill:#3748a8;fill-opacity:1;stroke:#000000;stroke-width:0;paint-order:markers fill stroke"
           d="m 149.11727,162.33957 0.78915,-0.54758 0.9502,1.46557 2.30303,-1.5783 0.64421,0.91799 -3.1405,2.06146 z"
           id="path6317" /><path
           style="fill:#3748a8;fill-opacity:1;stroke:#000000;stroke-width:0;paint-order:markers fill stroke"
           d="m 148.28786,166.0357 0.78915,-0.54758 0.9502,1.46557 2.30303,-1.5783 0.64421,0.91799 -3.1405,2.06146 z"
           id="path6317-3" /></g></g></g></svg>
