<?xml version="1.0" encoding="UTF-8"?> <svg xmlns="http://www.w3.org/2000/svg" viewBox="0 0 200 200"><defs><style>.cls-1{fill:#ccc;}.cls-2{fill:#e6e6e6;}.cls-3{fill:#d4f2fc;}.cls-4{fill:#39afe1;}</style></defs><title>CF_CoreServices_Icon_Services</title><g id="Services"><path class="cls-1" d="M152.4,88.54l-26-7.12L139.76,58l-9.26-9.26L108.11,61.55,100,36.14H86.9L79.13,60.5,56.4,48.78,47.14,58,58.86,80.76,34.5,88.54v13.1l24.36,7.78L47.14,132.13l9.26,9.27,22.73-11.72L86.9,154H100l7.78-24.36L130.5,141.4l9.26-9.27-12.23-23.69,24.87-6.8ZM93.45,121.29a26.2,26.2,0,1,1,26.2-26.2,26.19,26.19,0,0,1-26.2,26.2Zm0,0"></path><path class="cls-2" d="M93.45,52.51A42.58,42.58,0,1,0,136,95.09,42.57,42.57,0,0,0,93.45,52.51Zm0,65.5a22.93,22.93,0,1,1,22.92-22.92A22.92,22.92,0,0,1,93.45,118Zm0,0"></path><rect class="cls-3" x="96.72" y="108.19" width="68.78" height="55.67"></rect><path class="cls-4" d="M165.5,108.19V98.36a3.26,3.26,0,0,0-3.27-3.27H100a3.29,3.29,0,0,0-3.28,3.27v9.83Zm0,0"></path><path class="cls-4" d="M129.7,114.74,118.12,126.3l-6.94-6.93L106.55,124l11.57,11.57,16.22-16.2Zm0,0"></path><path class="cls-4" d="M129.7,136.48l-11.58,11.57-6.94-7-4.63,4.66,11.57,11.56,16.22-16.22Zm0,0"></path></g></svg> 