<?xml version="1.0" encoding="iso-8859-1"?>
<!-- Generator: Adobe Illustrator 19.0.0, SVG Export Plug-In . SVG Version: 6.00 Build 0)  -->
<svg version="1.1" id="Layer_1" xmlns="http://www.w3.org/2000/svg" xmlns:xlink="http://www.w3.org/1999/xlink" x="0px" y="0px"
	 viewBox="0 0 487.2 487.2" style="enable-background:new 0 0 487.2 487.2;" xml:space="preserve">
<g>
	<path style="fill:#D10257;" d="M53.6,173.6c-0.8,2.4-2.4,5.6-3.2,8C51.2,178.4,52,176,53.6,173.6L53.6,173.6z"/>
	<path style="fill:#D10257;" d="M48.8,184L48.8,184c-1.6,3.2-2.4,6.4-3.2,10.4v-0.8C47.2,190.4,48,187.2,48.8,184z"/>
	<path style="fill:#D10257;" d="M53.6,172.8c1.6-4.8,4-8.8,6.4-13.6C57.6,164,55.2,168,53.6,172.8z"/>
	<path style="fill:#D10257;" d="M40,216c0-0.8,0.8-2.4,0.8-3.2c0.8-2.4,0.8-4.8,1.6-8c0-0.8,0.8-1.6,0.8-2.4c0.8-2.4,1.6-5.6,2.4-8
		c-3.2,10.4-5.6,21.6-7.2,32c0-0.8,0-1.6,0-1.6C39.2,221.6,39.2,219.2,40,216z"/>
	<path style="fill:#D10257;" d="M87.2,117.6c3.2-4,6.4-7.2,9.6-11.2C93.6,109.6,90.4,113.6,87.2,117.6z"/>
	<path style="fill:#D10257;" d="M99.2,104c3.2-3.2,7.2-7.2,10.4-10.4C106.4,96.8,102.4,100.8,99.2,104z"/>
	<path style="fill:#D10257;" d="M60.8,156.8c2.4-4.8,4.8-8.8,7.2-12.8C65.6,148,63.2,152.8,60.8,156.8z"/>
	<path style="fill:#D10257;" d="M68.8,144c2.4-4,5.6-8,8-12C73.6,135.2,71.2,139.2,68.8,144z"/>
	<path style="fill:#D10257;" d="M78.4,128.8c3.2-4,5.6-8,8.8-12C84,120.8,81.6,124.8,78.4,128.8z"/>
	<path style="fill:#D10257;" d="M148,66.4c-4,2.4-8,4.8-12,8C139.2,71.2,144,68.8,148,66.4z"/>
	<path style="fill:#D10257;" d="M177.6,52c-4.8,1.6-8.8,4-13.6,5.6C168,55.2,172.8,53.6,177.6,52z"/>
	<path style="fill:#D10257;" d="M194.4,45.6c-4.8,1.6-9.6,3.2-13.6,4.8C184.8,48.8,189.6,47.2,194.4,45.6z"/>
	<path style="fill:#D10257;" d="M227.2,37.6c-4.8,0.8-9.6,1.6-14.4,3.2C217.6,40,222.4,38.4,227.2,37.6z"/>
	<path style="fill:#D10257;" d="M208.8,41.6c-4.8,0.8-9.6,2.4-14.4,4C199.2,44,204,42.4,208.8,41.6z"/>
	<path style="fill:#D10257;" d="M260,35.2v226.4V260H35.2c0,128,101.6,227.2,226.4,227.2s225.6-100.8,225.6-225.6S388,35.2,260,35.2
		z"/>
	<path style="fill:#D10257;" d="M120.8,84.8c-4,3.2-7.2,6.4-11.2,9.6C113.6,90.4,116.8,87.2,120.8,84.8z"/>
	<path style="fill:#D10257;" d="M135.2,73.6c-4,2.4-8,5.6-12,8.8C127.2,79.2,131.2,76.8,135.2,73.6z"/>
	<path style="fill:#D10257;" d="M164,57.6c-4.8,2.4-8.8,4.8-12.8,7.2C155.2,62.4,159.2,60,164,57.6z"/>
</g>
<g>
	<path style="fill:#FF2970;" d="M148.8,65.6c-4.8,2.4-8.8,5.6-12.8,8C140,70.4,144,68,148.8,65.6z"/>
	<path style="fill:#FF2970;" d="M101.6,101.6L101.6,101.6c6.4-6.4,12.8-12,20-17.6C114.4,89.6,108,95.2,101.6,101.6z"/>
	<path style="fill:#FF2970;" d="M134.4,74.4c-4,2.4-7.2,5.6-11.2,8C127.2,80,131.2,76.8,134.4,74.4z"/>
	<path style="fill:#FF2970;" d="M420.8,101.6c-44-44-104.8-66.4-160.8-66.4v226.4l0,0l160.8,160
		C508.8,333.6,509.6,190.4,420.8,101.6z"/>
	<path style="fill:#FF2970;" d="M162.4,58.4c-4,1.6-8,4-12,6.4C154.4,62.4,158.4,60,162.4,58.4z"/>
	<path style="fill:#FF2970;" d="M224.8,38.4c-4,0.8-8,1.6-11.2,2.4C216.8,40,220.8,39.2,224.8,38.4z"/>
	<path style="fill:#FF2970;" d="M209.6,41.6c-4.8,0.8-9.6,2.4-13.6,3.2C200,44,204.8,42.4,209.6,41.6z"/>
	<path style="fill:#FF2970;" d="M178.4,51.2c-4.8,1.6-8.8,4-13.6,5.6C168.8,55.2,173.6,52.8,178.4,51.2z"/>
	<path style="fill:#FF2970;" d="M192,46.4c-4,1.6-7.2,2.4-11.2,4C184.8,48.8,188,47.2,192,46.4z"/>
</g>
<path style="fill:#0CC69A;" d="M228,0C100,0,0,100,0,228h228V0z"/>
<path style="fill:#12DB55;" d="M67.2,67.2L228,226.4v1.6H0C0,164,26.4,108,67.2,67.2z"/>
<g>
</g>
<g>
</g>
<g>
</g>
<g>
</g>
<g>
</g>
<g>
</g>
<g>
</g>
<g>
</g>
<g>
</g>
<g>
</g>
<g>
</g>
<g>
</g>
<g>
</g>
<g>
</g>
<g>
</g>
</svg>
